<svg xmlns="http://www.w3.org/2000/svg" width="220.274" height="58.332" viewBox="0 0 220.274 58.332"><defs><style>.a{fill:#fff;}</style></defs><path class="a" d="M83.312,211.133a1.518,1.518,0,0,0-1.612.406,2.657,2.657,0,0,1-.962.595.455.455,0,0,0-.106.05q-.556.361-1.184.717a14.175,14.175,0,0,0-1.206.8.806.806,0,0,0-.345.067c-1.479.856-2.958,1.746-4.381,2.641a30.141,30.141,0,0,1-4.531,2.318.411.411,0,0,0-.234.256.408.408,0,0,1-.128.106,14.383,14.383,0,0,0-2.391,1.034,10.275,10.275,0,0,1-2.391.9l-.083.028a.739.739,0,0,0-.361.317l-.039.044c-.878.234-1.729.461-2.563.7s-1.74.45-2.613.639a8.561,8.561,0,0,1-2.168,0,11.712,11.712,0,0,1-1.851-.4,6.782,6.782,0,0,1-.934-.845q-.4-.423-.817-.851a.556.556,0,0,0-.35-.695.244.244,0,0,1-.095-.083c-.095-.367-.195-.734-.311-1.112s-.217-.734-.311-1.112a23.746,23.746,0,0,1,.428-6.283,39.513,39.513,0,0,1,1.718-5.9,56.936,56.936,0,0,1,2.4-5.454c.878-1.729,1.735-3.375,2.535-4.893a1.953,1.953,0,0,0,.289-.423.9.9,0,0,1,.172-.256.389.389,0,0,0,.072-.094,18.932,18.932,0,0,1,1.379-2.224,19,19,0,0,0,1.423-2.291q.834-1.076,1.668-2.2c.556-.745,1.112-1.462,1.724-2.185s1.168-1.434,1.757-2.118a24.849,24.849,0,0,0,1.668-2.163,4.487,4.487,0,0,0,1.468-1.462,2.78,2.78,0,0,1,1.418-1.112.423.423,0,0,0,.278-.395.467.467,0,0,1,.128-.25A21.427,21.427,0,0,0,73.8,176.2c.595-.595,1.229-1.184,1.885-1.746a15.054,15.054,0,0,1,1.9-1.373,15.951,15.951,0,0,0,1.952-1.4,5.12,5.12,0,0,0,1.067-.556,8.212,8.212,0,0,1,.967-.556l1.6-.651a10.008,10.008,0,0,1,1.774-.556,10.135,10.135,0,0,1,1.84-.245,2.813,2.813,0,0,1,1.507.339,3.075,3.075,0,0,1,1.462,2.38,7.617,7.617,0,0,1-.417,3.708,30.3,30.3,0,0,1-3.208,6.844c-1.357,2.129-2.663,4.214-3.892,6.194-.523.623-1.04,1.245-1.54,1.863a23.714,23.714,0,0,0-1.418,1.957l-1.562,1.712c-.517.556-1.023,1.162-1.5,1.779-.284.195-.556.395-.806.6a2.046,2.046,0,0,0-.684,1.112.445.445,0,0,0,.078.361.412.412,0,0,0,.328.156,1.54,1.54,0,0,0,1.179-.556,2.368,2.368,0,0,1,.673-.523.412.412,0,0,0,.117-.083c.867-.917,1.712-1.874,2.507-2.841s1.6-1.924,2.419-2.886a.423.423,0,0,0,.089-.361.845.845,0,0,0,.25-.406,12.521,12.521,0,0,0,2.224-2.952A18.846,18.846,0,0,1,86.7,184.44a.378.378,0,0,0,.095-.195,1.668,1.668,0,0,1,.45-.962,2.474,2.474,0,0,0,.684-1.373,3.447,3.447,0,0,0,.556-.806c.15-.295.295-.617.456-1a3.408,3.408,0,0,1,.384-.767,1.59,1.59,0,0,0,.3-.817.763.763,0,0,0,.139-.161l.056-.039a.423.423,0,0,0,.217-.267c.239-.912.478-1.757.717-2.507a13.927,13.927,0,0,0,.523-2.78,6.044,6.044,0,0,0-1.568-4.053,3.286,3.286,0,0,0-1.529-.828,6.521,6.521,0,0,0-1.924-.195,9.411,9.411,0,0,0-2.013.3,16.2,16.2,0,0,0-1.707.556h-.05c-.334.195-.656.373-.967.556a4.175,4.175,0,0,1-.951.361.4.4,0,0,0-.139.061,23.91,23.91,0,0,1-2.063,1.318,9.041,9.041,0,0,0-1.863,1.462,1.268,1.268,0,0,0-.428.278.456.456,0,0,1-.195.117.461.461,0,0,0-.167.1,2.142,2.142,0,0,1-.245.217,1.669,1.669,0,0,0-.322.334,5.221,5.221,0,0,0-1.507,1.168,6.244,6.244,0,0,1-1.323,1.112.323.323,0,0,0-.117.111,3.825,3.825,0,0,1-1.073,1.012,3.169,3.169,0,0,0-1.156,1.3,8.418,8.418,0,0,0-1.579,1.418,13.609,13.609,0,0,1-1.54,1.507.406.406,0,0,0-.133.206.923.923,0,0,1-.345.528,1.724,1.724,0,0,0-.617.834,2.507,2.507,0,0,0-.606.606c-.156.228-.328.456-.506.678a11.12,11.12,0,0,0-1.7,2.007,13.171,13.171,0,0,1-1.612,1.957.555.555,0,0,0-.095.139,3.942,3.942,0,0,1-.651,1.112A4.52,4.52,0,0,0,59.9,190.1a.489.489,0,0,0-.284.289.412.412,0,0,0-.195.206,3.748,3.748,0,0,1-.617.973,3.336,3.336,0,0,0-.678,1.24,13.805,13.805,0,0,0-1.518,2.4,20.127,20.127,0,0,1-1.418,2.407.411.411,0,0,0-.05.367v.028a2.224,2.224,0,0,0-.128.234c-.039.078-.083.15-.117.206a1.5,1.5,0,0,1-.167.189.445.445,0,0,0-.083.117c-.556,1.212-1.179,2.53-1.774,3.892a45.419,45.419,0,0,0-1.64,4.409,38.361,38.361,0,0,0-1.145,4.731,18.864,18.864,0,0,0-.295,4.665,10.008,10.008,0,0,0,.717,3.892,7.228,7.228,0,0,0,2.018,2.78,4.342,4.342,0,0,0,2.368,1.067,11.984,11.984,0,0,0,1.668.117,9.333,9.333,0,0,0,1.04-.039,15.879,15.879,0,0,0,2.78-.484c.9-.245,1.7-.489,2.38-.734,1.512-.556,2.98-1.14,4.376-1.785s2.669-1.312,3.825-1.985a3.854,3.854,0,0,1,.406-.111.378.378,0,0,0,.217-.061l3.336-2.057c1.112-.689,2.313-1.379,3.558-2.052a.289.289,0,0,0,.095-.072,3.3,3.3,0,0,1,1.062-.7,6.672,6.672,0,0,0,1.39-.773.373.373,0,0,0,.083-.078.878.878,0,0,1,.4-.3,2.1,2.1,0,0,0,.678-.417,3.555,3.555,0,0,1,.556-.261,1.4,1.4,0,0,0,.767-.65.411.411,0,0,0,.039-.35A.439.439,0,0,0,83.312,211.133Z" transform="translate(-49.757 -165.972)"/><path class="a" d="M147.744,192.412a3.047,3.047,0,0,1,.556.439,5.517,5.517,0,0,0,.823.667.423.423,0,0,0,.373.044.411.411,0,0,0,.261-.272,1.223,1.223,0,0,0-.467-1.518,4.52,4.52,0,0,1-.8-.634.423.423,0,0,0-.25-.117,4.2,4.2,0,0,0-2.224.25.478.478,0,0,0-.122.083,1.879,1.879,0,0,0-.25.3,2.012,2.012,0,0,0-.8.461,1.3,1.3,0,0,1-.556.289.412.412,0,0,0-.245.195,4.159,4.159,0,0,1-1.418,1.479,4.331,4.331,0,0,0-1.6,1.813,21.988,21.988,0,0,0-1.829,2.079l-.295.384a11.234,11.234,0,0,0,.589-1.423,3.025,3.025,0,0,0,.612-1.112,3.544,3.544,0,0,1,.139-.35.512.512,0,0,0,.617-.145,2.78,2.78,0,0,0,.345-1.062v-.039c.061-.095.117-.195.172-.3a.423.423,0,0,0,0-.406s-.033,0-.044-.044a.889.889,0,0,1,0-.172.423.423,0,0,0-.15-.373.445.445,0,0,0-.372-.1.411.411,0,0,0-.512-.117,1.111,1.111,0,0,0-.261.183.411.411,0,0,0-.306.267,10.35,10.35,0,0,1-.517,1.184h0a.45.45,0,0,0-.156.095,22.473,22.473,0,0,1-2.585,2.09,30.2,30.2,0,0,0-2.613,2.029,2.858,2.858,0,0,0-.956.523l-.717.556-2.063.956a2.975,2.975,0,0,1-1.785.278c-.156-.117-.306-.239-.445-.361a5.4,5.4,0,0,0-.473-.361,2.174,2.174,0,0,1-.556-1.229,11.443,11.443,0,0,1-.139-1.851c0-.667,0-1.351.033-2.046a7.374,7.374,0,0,0-.189-2.029.434.434,0,0,0-.222-.272,2,2,0,0,1-.556-.356.417.417,0,0,0-.395-.106.506.506,0,0,1-.272,0,.445.445,0,0,0-.295,0,8.612,8.612,0,0,0-3.114,2.224,32.934,32.934,0,0,1-2.569,2.569.4.4,0,0,0-.1.139c-.25.556-.467.745-.606.812a.417.417,0,0,0-.161.15,15.1,15.1,0,0,1-1.373,1.829,9.946,9.946,0,0,0-1.351,2.024,3.336,3.336,0,0,0-.956,1.262,2.513,2.513,0,0,1-.773.99.422.422,0,0,0-.139.189,3.692,3.692,0,0,1-.489.906c-.217.295-.428.595-.628.89l-.111.172a14.623,14.623,0,0,1,1.051-2.78c.65-1.284,1.3-2.691,1.9-4.181a1.37,1.37,0,0,0,.189-.161.368.368,0,0,0,.078-.111q1.79-3.731,3.692-6.872a6.116,6.116,0,0,1,1.284-1.863,10.425,10.425,0,0,0,1.484-1.807c.673-.678,1.3-1.357,1.868-2.018s1.151-1.39,1.729-2.157a17.822,17.822,0,0,0,1.334-1.34,11.269,11.269,0,0,0,1.062-1.384.556.556,0,0,0,.272-.211h0a.411.411,0,0,0,.172-.15,8.167,8.167,0,0,1,1.307-1.618,8.34,8.34,0,0,0,1.384-1.757.834.834,0,0,0,.361-.334c.456-.589.934-1.156,1.418-1.668a10.446,10.446,0,0,0,1.368-1.879,28.913,28.913,0,0,0,2.024-2.569,23.908,23.908,0,0,0,1.74-2.924,1.346,1.346,0,0,0,.178-.222h0a.411.411,0,0,0,.222-.267,4.587,4.587,0,0,1,.495-1.162,1.974,1.974,0,0,0,.217-1.668.417.417,0,0,0-.1-.167,1.112,1.112,0,0,0-.589-.295.228.228,0,0,1-.133-.061.384.384,0,0,0-.206-.117,1.24,1.24,0,0,0-1.357.367,1.04,1.04,0,0,1-.556.367.417.417,0,0,0-.256.239.556.556,0,0,1-.217.3,1.284,1.284,0,0,0-.495.556.951.951,0,0,0-.467.439s0,.044-.122.072a.417.417,0,0,0-.234.15,27.412,27.412,0,0,1-1.851,2.224,9.591,9.591,0,0,0-1.6,2.291,2.43,2.43,0,0,0-.339.3.35.35,0,0,0-.089.133,3.63,3.63,0,0,1-.945,1.334,3.336,3.336,0,0,0-.984,1.473,1.345,1.345,0,0,0-.356.556.35.35,0,0,1-.195.206.428.428,0,0,0-.217.272.289.289,0,0,1-.117.189,1.112,1.112,0,0,0-.428.612,3.6,3.6,0,0,0-.511.617.851.851,0,0,0-.167.778h0a.417.417,0,0,0-.25.1,4.832,4.832,0,0,0-1.168,1.668c-.284.378-.556.767-.906,1.184a5.459,5.459,0,0,0-.834,1.551,4.147,4.147,0,0,0-.617.856,3.13,3.13,0,0,1-.556.734.456.456,0,0,0-.1.161,1.669,1.669,0,0,1-.095.228,1.423,1.423,0,0,0-.167.345,11.08,11.08,0,0,0-1,1.329,6.938,6.938,0,0,0-.695,1.5.589.589,0,0,0-.306.345.4.4,0,0,0-.183.195,12.2,12.2,0,0,1-1.462,2.48,26.731,26.731,0,0,0-1.668,2.413,3.888,3.888,0,0,1-.3.267,2.291,2.291,0,0,0-.445.489.417.417,0,0,0-.067.228.556.556,0,0,0,.345.523.6.6,0,0,0-.083.322,13.666,13.666,0,0,0-1.518,2.874,20.936,20.936,0,0,0-1.423,2.78,30.526,30.526,0,0,1-1.39,2.852.428.428,0,0,0-.05.2,2.011,2.011,0,0,1,0,.311h0a16.4,16.4,0,0,0-1.562,4.526.45.45,0,0,0,0,.211,1.612,1.612,0,0,0,.322.617.445.445,0,0,0,.128.161.556.556,0,0,0,.517.106.411.411,0,0,0,.295.122.4.4,0,0,0,.284-.111,9.051,9.051,0,0,0,1.857-2.424c.45-.856.945-1.724,1.44-2.541.678-.873,1.34-1.79,1.968-2.735s1.273-1.857,1.913-2.73q.728-.8,1.451-1.635c.467-.556.967-1.067,1.479-1.585a10.409,10.409,0,0,0,1.551-1.407,2.835,2.835,0,0,1,1.657-.928.456.456,0,0,1,.067.328,6.9,6.9,0,0,0,.033,1.173,10.563,10.563,0,0,0,.2,4.42,3.586,3.586,0,0,0,2.958,2.646,2.224,2.224,0,0,0,.756.039,4.332,4.332,0,0,0,.689-.122,8.05,8.05,0,0,0,.867-.345,2.907,2.907,0,0,1,.8-.217.555.555,0,0,0,.156-.056,51.624,51.624,0,0,0,4.587-3.136c.556-.417,1.073-.845,1.6-1.284l-.067.195a11.12,11.12,0,0,0-1.112,2.118,14.157,14.157,0,0,1-1.017,2.035.555.555,0,0,0-.05.117,5.627,5.627,0,0,1-.439,1.145,4.492,4.492,0,0,0-.439,1.6.4.4,0,0,0,.122.328,1.329,1.329,0,0,0,.461.311.556.556,0,0,1,.189.122.4.4,0,0,0,.295.122h.044a.411.411,0,0,0,.306-.195c.239-.378.478-.751.717-1.112a3.969,3.969,0,0,0,.495-1.012.506.506,0,0,0,.106-.072.411.411,0,0,0,.3-.233,14.177,14.177,0,0,1,2.035-3.23c.812-.956,1.612-2,2.38-3.1.812-.717,1.6-1.468,2.335-2.224a7.3,7.3,0,0,1,2.569-1.668,1.792,1.792,0,0,0,.395-.044,1.145,1.145,0,0,1,.289.028Zm-20.7-12.971a1.774,1.774,0,0,0,.245-.945h0l.117.044a.428.428,0,0,0,.428-.128,7.783,7.783,0,0,0,.956-1.379,4.086,4.086,0,0,1,.884-1.112.45.45,0,0,0,.133-.372l.061-.095a1.406,1.406,0,0,0,.361-.389.611.611,0,0,1,.2-.195.406.406,0,0,0,.15-.183,5.46,5.46,0,0,1,1.206-1.779,6.116,6.116,0,0,0,1.279-1.8.406.406,0,0,0,.322-.228,2.168,2.168,0,0,1,.389-.556,1.862,1.862,0,0,0,.389-.556h0a.411.411,0,0,0,.339-.172,12.481,12.481,0,0,1,1.5-1.746c.523-.5,1.112-1.012,1.668-1.523l.245-.083a.6.6,0,0,1,0,.206,6.115,6.115,0,0,1-.967,1.963,10.474,10.474,0,0,0-1.212,2.074,10.148,10.148,0,0,0-1.2,1.5,18.027,18.027,0,0,1-1.112,1.518s-.044.078-.061.106a.484.484,0,0,0-.206.367,10.051,10.051,0,0,0-1.073,1.156c-.373.478-.728.956-1.034,1.4-1.29,1.479-2.58,2.991-3.836,4.487s-2.546,2.936-3.892,4.314a.446.446,0,0,0-.072.106.617.617,0,0,0-.083.339c-.106.072-.211.15-.311.234.311-.506.623-1.006.94-1.5.94-1.468,1.9-2.913,2.847-4.287a.367.367,0,0,0,.05-.106,2.831,2.831,0,0,1,.345-.667Z" transform="translate(-76.615 -164.603)"/><path class="a" d="M189.086,199.884h.039c.411-.039,1.112-.289,1.112-1.5a.406.406,0,0,0-.2-.35.934.934,0,0,0-.884-.145.734.734,0,0,0-.4.623,7.333,7.333,0,0,0-.072.956.423.423,0,0,0,.133.311.411.411,0,0,0,.272.106Z" transform="translate(-111.441 -179.359)"/><path class="a" d="M198.117,210.984a.422.422,0,0,0-.373.056h0a.95.95,0,0,0-.384.106,12.015,12.015,0,0,0-2.991,2.585,12.908,12.908,0,0,1-1.974,1.924c-.628.4-1.245.806-1.846,1.212-1.173.8-2.4,1.618-3.647,2.435a37.664,37.664,0,0,0-3.619,1.774,9.546,9.546,0,0,1-3.7,1.112,9.234,9.234,0,0,0-.917-.367,1.968,1.968,0,0,1-.339-1.49,21,21,0,0,1,1.429-2.852c.467-.773.967-1.518,1.49-2.224a.417.417,0,0,0,.167.05.6.6,0,0,0,.489-.206.4.4,0,0,0,.106-.189c.245-.973-.128-1.418-.484-1.623a.423.423,0,0,0-.523.089c-.334.384-.656.739-.967,1.073a7.98,7.98,0,0,0-.951,1.3l-1.112,1.729a8.251,8.251,0,0,0-1.145,3.547,2.841,2.841,0,0,0,.256,1.273,3.576,3.576,0,0,0,.662.906.4.4,0,0,0,.189.106,2.6,2.6,0,0,1,.35.111l.295.15a1.012,1.012,0,0,0,.3.056,1.174,1.174,0,0,0,.389.056h.078a2.69,2.69,0,0,1,.5-.067,3.27,3.27,0,0,0,.656-.078h.072a2.307,2.307,0,0,1,.556-.156,3.024,3.024,0,0,0,.812-.211,54,54,0,0,0,9.151-5.232,3.53,3.53,0,0,0-.189,2.257,2.09,2.09,0,0,1-.556.284,1.84,1.84,0,0,0-.967.728,4.687,4.687,0,0,0-1.824,1.112,4.759,4.759,0,0,1-1.668,1.029.405.405,0,0,0-.139.083,37.828,37.828,0,0,1-2.93,2.4,8.634,8.634,0,0,0-2.585,3.147.406.406,0,0,0,0,.322,4.276,4.276,0,0,1-.089.495.428.428,0,0,0,.067.328,3.992,3.992,0,0,0,2.924,1.768h.406a8.19,8.19,0,0,0,2.485-.389c.917-.289,1.74-.556,2.463-.8l.067-.033c.556-.284,1.079-.556,1.668-.862l1.59-.8a.379.379,0,0,0,.145-.122,1.112,1.112,0,0,1,.667-.484.451.451,0,0,0,.239-.122c.467-.467.934-.9,1.379-1.273a5.931,5.931,0,0,0,1.284-1.557.471.471,0,0,0,.05-.122,3.269,3.269,0,0,0-.095-1.946,4.07,4.07,0,0,0-.851-1.29,13.345,13.345,0,0,0-1.079-.967,4.054,4.054,0,0,1-.6-.595,7.576,7.576,0,0,1,.778-.356,4.331,4.331,0,0,0,1.273-.762.406.406,0,0,0,.106-.489.417.417,0,0,0-.445-.239,3.831,3.831,0,0,0-1.446.556.873.873,0,0,0-.745.211.351.351,0,0,1-.111.072.934.934,0,0,1-.033-.261,8.049,8.049,0,0,1,.056-.828,1.307,1.307,0,0,0,.295-.651,5.556,5.556,0,0,0,.595-.745,9.447,9.447,0,0,1,.6-.806,19.691,19.691,0,0,1,2.5-1.913,10.892,10.892,0,0,0,2.552-2.257.417.417,0,0,0,0-.517,1.746,1.746,0,0,0-.817-.562Zm-4.031,13.688a7.016,7.016,0,0,1-2.7,2.863c-1.2.684-2.419,1.357-3.619,2h-.334a.45.45,0,0,0-.25.083,1.112,1.112,0,0,1-.556.211,18.807,18.807,0,0,0-2.035.445,3.336,3.336,0,0,1-1.84,0,2.563,2.563,0,0,1-1.056-.556,1.351,1.351,0,0,1,.128-.506,6.3,6.3,0,0,0,.317-.756c1.029-1.023,2.079-1.99,3.119-2.869a25.577,25.577,0,0,1,3.525-2.491l.078-.061a.818.818,0,0,0,.228-.345,3.514,3.514,0,0,0,1.156-.645,4.213,4.213,0,0,1,1.257-.712,5.047,5.047,0,0,0,.662.673c.311.261.606.556.878.806a4.787,4.787,0,0,1,.7.9,2.647,2.647,0,0,1,.345.951Z" transform="translate(-106.178 -185.188)"/><path class="a" d="M279.811,180.109a8.14,8.14,0,0,0,1.885-.484,1.418,1.418,0,0,0,1.006-.145.556.556,0,0,1,.5-.039.417.417,0,0,0,.284,0,3.613,3.613,0,0,1,.65-.195,4.638,4.638,0,0,0,.739-.217c1.3-.145,2.652-.311,4.042-.5s2.847-.322,4.264-.395a34.764,34.764,0,0,1,4.175.033,14.1,14.1,0,0,1,3.592.712,1.251,1.251,0,0,0,.723.606.856.856,0,0,1,.145.434,2.274,2.274,0,0,0,.311,1.012.4.4,0,0,0,.378.2.4.4,0,0,0,.356-.245,1.852,1.852,0,0,0,0-1.746,7.439,7.439,0,0,0-.728-1.079.384.384,0,0,0-.222-.133l-.195-.056a.806.806,0,0,0-.45-.1,3.058,3.058,0,0,0-2.029-.867,15.073,15.073,0,0,1-2.107-.284.389.389,0,0,0-.139,0,4.51,4.51,0,0,1-1.112,0,3.813,3.813,0,0,0-1.234.056,4.031,4.031,0,0,0-1.151-.095,7.02,7.02,0,0,0-1.2.178,12.87,12.87,0,0,0-2.1.039,16.247,16.247,0,0,0-2.324.395,16.2,16.2,0,0,0-2.546.222,23.36,23.36,0,0,0-2.463.556,2.191,2.191,0,0,0-1.112.033c-.35.095-.634.183-.873.272a6.116,6.116,0,0,0-1.518.234l-.873.239a1.883,1.883,0,0,1,.05-.228.906.906,0,0,0-.061-.762.8.8,0,0,0-.556-.345.428.428,0,0,0-.428.2,2.063,2.063,0,0,0-.278,1.079,1.111,1.111,0,0,1-.061.373.556.556,0,0,0-.211.044.434.434,0,0,0-.361,0,4.616,4.616,0,0,1-1.262.4,7.935,7.935,0,0,1-1.373.133.477.477,0,0,0-.15,0,16.212,16.212,0,0,1-2.747.812,20.8,20.8,0,0,0-2.658.723.556.556,0,0,0-.384,0,25.222,25.222,0,0,1-3.375,1.112,23.064,23.064,0,0,0-3.375,1.112,9.452,9.452,0,0,0-2.635.784,8.469,8.469,0,0,1-2.446.723.422.422,0,0,0-.311.228.3.3,0,0,1-.033.061,3.777,3.777,0,0,0-.556.078.351.351,0,0,0-.133.05,1.9,1.9,0,0,1-.623.239,1.979,1.979,0,0,0-.734.295.617.617,0,0,0-.345,0,14.7,14.7,0,0,1-2.141.812,12.063,12.063,0,0,0-2.224.9,2.285,2.285,0,0,0-1.273.456,1.162,1.162,0,0,1-.773.183.4.4,0,0,0-.245.083,3.892,3.892,0,0,1-1.6.684,4.237,4.237,0,0,0-1.668.684.556.556,0,0,0-.417.145.4.4,0,0,0-.239.044,13.771,13.771,0,0,1-1.9.845l-1.974.767a55.518,55.518,0,0,1-5.955,2.435c-1.907.656-3.82,1.384-5.677,2.168a.678.678,0,0,0-.773.172.473.473,0,0,0-.122.261,2.013,2.013,0,0,0,.684,1.757q.639.556,1.284,1.067a.417.417,0,0,0,.484,0,.411.411,0,0,0,.178-.45,2.346,2.346,0,0,0-.556-1.112,1.212,1.212,0,0,1-.256-.395c.35-.167.689-.317,1.012-.439a7.986,7.986,0,0,1,1.245-.378l.078-.028c.517-.239,1.056-.45,1.59-.639s1.112-.384,1.757-.556a.484.484,0,0,0,.172-.1.406.406,0,0,1,.195-.117,1.4,1.4,0,0,0,.456-.25c1.707-.617,3.38-1.268,4.965-1.929s3.28-1.323,5.043-1.963a1.668,1.668,0,0,0,.4-.3c1.512-.523,2.98-1.062,4.376-1.6s2.963-1.067,4.626-1.546a.389.389,0,0,0,.178-.106l.128-.111c1-.289,2.04-.617,3.075-.979s2.046-.723,3.08-1.112h.361a.367.367,0,0,0,.156,0,3.772,3.772,0,0,0,.656-.328.4.4,0,0,1,.267,0,.423.423,0,0,0,.295-.05,4.342,4.342,0,0,1,.662-.334,2.136,2.136,0,0,1,.784-.117.417.417,0,0,0,.295-.122,1.728,1.728,0,0,1,.328-.211.211.211,0,0,1,.206,0,.428.428,0,0,0,.4,0,5.444,5.444,0,0,1,1.412-.606,14.4,14.4,0,0,1,1.757-.35.5.5,0,0,0,.128-.044,5.42,5.42,0,0,1,1.373-.467,7.615,7.615,0,0,0,1.6-.512l1.668-.317a8.05,8.05,0,0,0,1.774-.556,7.383,7.383,0,0,0,1.273-.295c.183-.056.356-.1.523-.133a39.99,39.99,0,0,1-2.419,5.315c-1.012,1.829-1.985,3.725-2.891,5.632a32.307,32.307,0,0,0-1.846,2.969c-.556,1-1.079,2-1.6,2.991a5.62,5.62,0,0,0-.967,1.318c-.234.445-.467.9-.706,1.368a10.007,10.007,0,0,0-1.056,1.468c-.295.506-.606,1.006-.923,1.512a1.429,1.429,0,0,0-.378.4,1.028,1.028,0,0,1-.189.245.373.373,0,0,0-.089.139.856.856,0,0,1-.2.339.917.917,0,0,0-.328.662,15.382,15.382,0,0,0-1.162,1.484c-.367.556-.734,1.068-1.112,1.612l-.189.095a.417.417,0,0,0-.189.189,7.667,7.667,0,0,1-.99,1.507,16.407,16.407,0,0,0-1.173,1.551,3.336,3.336,0,0,0-1.2,1.351,2.079,2.079,0,0,1-.934.967.467.467,0,0,0-.178.167,5.265,5.265,0,0,1-1.073,1.34,6.326,6.326,0,0,0-1.2,1.49c-.373.322-.734.65-1.079.979a6.972,6.972,0,0,0-1.012,1.184q-2.079,1.857-4.148,3.686a18.843,18.843,0,0,1-4.626,2.952,1.93,1.93,0,0,0-.717,0,.612.612,0,0,1-.356-.05,1.912,1.912,0,0,1-.05-.984,11.247,11.247,0,0,1,.328-1.34c.423-.662.834-1.334,1.212-2s.773-1.307,1.2-1.968a1.113,1.113,0,0,1,.222-.183.4.4,0,0,0,.167-.15,7.473,7.473,0,0,1,1.2-1.507,7.451,7.451,0,0,0,1.3-1.668,14.081,14.081,0,0,0,1.985-1.963,10.009,10.009,0,0,1,1.979-1.8.423.423,0,0,0,.156-.211.189.189,0,0,1,.072-.1.717.717,0,0,0,.3-.317.806.806,0,0,0,.289-.178.558.558,0,0,1,.145-.1.5.5,0,0,0,.167-.156,2.062,2.062,0,0,1,.817-.756,2.085,2.085,0,0,0,1.034-1.3.417.417,0,0,0-.489-.528,2,2,0,0,0-1.223.923.639.639,0,0,0-.456.239,3.048,3.048,0,0,1-.506.5,3.8,3.8,0,0,0-.517.489.428.428,0,0,0-.133.061.506.506,0,0,0-.172.183.556.556,0,0,0-.156.095l-3.253,3.108a40.986,40.986,0,0,0-3.236,3.469q-.133.2-.267.367a3.394,3.394,0,0,1-.261.289l-.05.067a2.78,2.78,0,0,0-.295.589,1,1,0,0,1-.206.328l-.395.267a.289.289,0,0,0-.095.089,4.57,4.57,0,0,0-.595.984c-.167.356-.35.728-.523,1.084a13.345,13.345,0,0,0-1.112,2.346,3.469,3.469,0,0,0,.078,2.658.556.556,0,0,0,.089.133c.106.1.234.217.389.35a3.9,3.9,0,0,1,.334.295.417.417,0,0,0,.378.117l.172-.028a1.228,1.228,0,0,0,.612.106h.083a7.378,7.378,0,0,0,3.336-1.573A17.237,17.237,0,0,1,248.4,224.1a.417.417,0,0,0,.217-.367q0-.042,0-.05a.968.968,0,0,0,.372-.473,11.6,11.6,0,0,0,1.785-1.457c.556-.556,1.112-1.112,1.668-1.724a.611.611,0,0,0,.411-.2c1.073-1.112,2.124-2.28,3.125-3.447s2.024-2.346,3.036-3.5l.039-.056a11.18,11.18,0,0,1,1.184-1.6c.439-.489.878-1,1.334-1.562,3.125-4.448,6.155-9.124,9.013-13.827a100.151,100.151,0,0,0,7.517-15.284A8.58,8.58,0,0,1,279.811,180.109Z" transform="translate(-128.209 -169.92)"/><path class="a" d="M343.092,212.15a.908.908,0,0,0,.206.072.4.4,0,0,0,.061.106l.061.106c-.089.862-.183,1.668-.272,2.357s-.195,1.562-.289,2.43a.384.384,0,0,0,0,.178,6.266,6.266,0,0,1,.272,1.251,1.4,1.4,0,0,0,1.112,1.257.411.411,0,0,0,.367-.061h0a.434.434,0,0,0,.373-.228.445.445,0,0,0,.033-.35.745.745,0,0,0-.3-.706.623.623,0,0,1-.206-.272,2.824,2.824,0,0,1-.122-1.479c.1-.65.195-1.312.289-1.99a19.5,19.5,0,0,0,.189-1.957,2.463,2.463,0,0,0-.556-1.774.4.4,0,0,0-.161-.111,1.056,1.056,0,0,0-.845-.044l-.072-.05a.423.423,0,0,0-.556.039c-.056.056-.095.072-.095.067a.422.422,0,0,0-.484.078l-.067.078a1.162,1.162,0,0,0-.584.189,1.868,1.868,0,0,0-.456.389,3.821,3.821,0,0,0-1.112.556,3.742,3.742,0,0,1-1.079.556.434.434,0,0,0-.206.156,2.346,2.346,0,0,1-.712.678,11.483,11.483,0,0,1-1.012.556.406.406,0,0,0-.161.145,2.6,2.6,0,0,1-.311.367v.028a.417.417,0,0,0-.334.117c-.234.239-.473.461-.706.673a3.334,3.334,0,0,1-.7.478.439.439,0,0,0-.161.139.4.4,0,0,1-.133.139.673.673,0,0,0-.411.484,7.228,7.228,0,0,0-1.5,1.112,5.32,5.32,0,0,1-1.017.8,11.572,11.572,0,0,1,.717-1.112,8.851,8.851,0,0,0,.873-1.585,9.742,9.742,0,0,0,1.707-2.124,12.068,12.068,0,0,1,1.5-2.029l.044-.056c.328-.517.662-1,.99-1.418s.689-.851,1.067-1.279a.411.411,0,0,0,.106-.278.306.306,0,0,1,.056-.206c.083-.106.172-.206.256-.295a.417.417,0,0,0,.122-.295.806.806,0,0,1,.1-.317.411.411,0,0,0-.078-.484c-.061-.061-.072-.089-.072-.1a.617.617,0,0,0-.656-.456.417.417,0,0,0-.373.234,1.157,1.157,0,0,1-.167.206,19.266,19.266,0,0,0-3.97,2.685.717.717,0,0,0-.528.356h0a.417.417,0,0,0-.456.222c-.05.106-.089.189-.117.256a11.121,11.121,0,0,0-2.469,1.724,14.489,14.489,0,0,1-2.318,1.751l-.078.061a1.813,1.813,0,0,0-.178.217.717.717,0,0,0-.423.245,2.1,2.1,0,0,1-.789.556,1.823,1.823,0,0,0-.906.823,2.062,2.062,0,0,0-.706.295,2.335,2.335,0,0,0-.589.523.589.589,0,0,0-.556.328l-.044.072a1.468,1.468,0,0,0-.778.434,1.668,1.668,0,0,1-.478.345h-.206a.417.417,0,0,0-.245.083,30.251,30.251,0,0,1-2.569,1.712,14.758,14.758,0,0,1-2.908,1.251c-.195.039-.272.039-.261.044a1.668,1.668,0,0,0-.489-.05c-.122-.128-.206-.228-.267-.3a5,5,0,0,1,.367-1.768,9.781,9.781,0,0,1,.94-1.768c.373-.556.784-1.112,1.212-1.718a10.564,10.564,0,0,0,1.084-1.779,2.173,2.173,0,0,0,.406-.434c.122-.172.234-.328.328-.478a.411.411,0,0,0,0-.423.828.828,0,0,1-.078-.206.745.745,0,0,0-.395-.484.434.434,0,0,0-.411,0,7.572,7.572,0,0,0-1.034.767,4.772,4.772,0,0,1-.523.417,2.017,2.017,0,0,0-.311-.406,3.82,3.82,0,0,0-.728-.556.428.428,0,0,0-.206-.05,3.891,3.891,0,0,0-1.668.328,8.139,8.139,0,0,0-1.19.689,7.932,7.932,0,0,0-1.023.878,3.809,3.809,0,0,1-.94.678.345.345,0,0,0-.122.094l-1.446,1.59a5.559,5.559,0,0,0-1.179,2.185.389.389,0,0,0,0,.178,1.145,1.145,0,0,0,.639.973,1.379,1.379,0,0,0,.979.056,4.776,4.776,0,0,0,.84-.361,6.92,6.92,0,0,0,.745-.473,2.983,2.983,0,0,1,.595-.378,3.774,3.774,0,0,0,.606-.322.288.288,0,0,0,.061-.056,1.889,1.889,0,0,0,.272-.317,1.615,1.615,0,0,1,.128-.156,15.687,15.687,0,0,0,1.74-1.234,9.943,9.943,0,0,1,.806-.595h0c-.361.762-.745,1.49-1.145,2.174a7.685,7.685,0,0,0-.917,2.485.556.556,0,0,0,0,.133,2.236,2.236,0,0,0,1.935,2.157h.756a11.964,11.964,0,0,0,3.48-1.535c.99-.656,1.974-1.323,2.913-1.979.373-.189.728-.384,1.051-.556a3.754,3.754,0,0,0,.867-.734,5.6,5.6,0,0,0,1.407-.94,4.61,4.61,0,0,1,1.257-.828.478.478,0,0,0,.145-.111,5.559,5.559,0,0,1,1.668-1.345,6.221,6.221,0,0,0,1.768-1.4h.1a.422.422,0,0,0,.328-.156,3.816,3.816,0,0,1,.489-.523,1.7,1.7,0,0,1,.556-.284.329.329,0,0,0,.161-.1,10.251,10.251,0,0,1,1.668-1.351,19.688,19.688,0,0,0,1.785-1.318l.206-.078c-.411.556-.817,1.084-1.218,1.629-.745,1.006-1.529,2-2.33,2.941a.428.428,0,0,0-.1.267v.195a8.5,8.5,0,0,0-1.284,1.735,14.833,14.833,0,0,1-1.162,1.8.418.418,0,0,0-.039.067q-.15.295-.334.7a5.9,5.9,0,0,0-.311.856,1.557,1.557,0,0,0,0,.945,1.012,1.012,0,0,0,.867.623.384.384,0,0,0,.178,0,2.519,2.519,0,0,0,1.4-.94A6.01,6.01,0,0,0,333.6,218.9a10.859,10.859,0,0,1,1.457-1.29.133.133,0,0,0,.05-.044,1.512,1.512,0,0,0,.25-.378c1.229-.9,2.457-1.829,3.653-2.78a15.041,15.041,0,0,1,4.025-2.224C343.075,212.155,343.1,212.155,343.092,212.15Zm-27.621,1.184h.1a.745.745,0,0,0,.339.2c.028.072.05.139.078.2a.678.678,0,0,1,0,.095.555.555,0,0,0-.106.178c-.35.256-.712.512-1.079.756a6.149,6.149,0,0,0-1.184,1.023,12.63,12.63,0,0,0-1.573.934c-.445.311-.9.645-1.334,1a1.145,1.145,0,0,0-.723.267,1.963,1.963,0,0,1,.461-.806l1.985-1.99c.278-.272.556-.506.734-.667a1.174,1.174,0,0,1,.334-.167.823.823,0,0,0,.473-.417,5.253,5.253,0,0,0,.74-.295A4.686,4.686,0,0,1,315.471,213.334Z" transform="translate(-164.586 -183.279)"/><path class="a" d="M383,211.539a1.773,1.773,0,0,0-.851-.556.434.434,0,0,0-.378.056h0a.951.951,0,0,0-.384.106,12.042,12.042,0,0,0-3,2.585,13.182,13.182,0,0,1-2.73,2.485.417.417,0,0,0-.161.217.189.189,0,0,1-.072.1.839.839,0,0,0-.384.745.511.511,0,0,0,.056.395.417.417,0,0,0,.117.133,3.53,3.53,0,0,0-.234,2.38,2.091,2.091,0,0,1-.556.284,1.873,1.873,0,0,0-.973.728,4.77,4.77,0,0,0-1.824,1.112,4.687,4.687,0,0,1-1.668,1.029.356.356,0,0,0-.139.083c-.951.851-1.935,1.668-2.93,2.4a8.634,8.634,0,0,0-2.585,3.147.434.434,0,0,0,0,.322,2.872,2.872,0,0,1-.083.495.428.428,0,0,0,.061.328,4.014,4.014,0,0,0,2.924,1.768h.411a8.19,8.19,0,0,0,2.485-.389c.917-.289,1.74-.556,2.463-.8l.067-.033c.528-.284,1.073-.556,1.668-.862l1.59-.8a.378.378,0,0,0,.145-.122,1.079,1.079,0,0,1,.667-.484.417.417,0,0,0,.234-.122c.473-.473.94-.9,1.384-1.273a6.043,6.043,0,0,0,1.284-1.557.322.322,0,0,0,.044-.122,3.224,3.224,0,0,0-.094-1.946,3.971,3.971,0,0,0-.9-1.273,13.566,13.566,0,0,0-1.084-.967,4.3,4.3,0,0,1-.595-.595,6.985,6.985,0,0,1,.773-.356,4.359,4.359,0,0,0,1.279-.762.417.417,0,0,0-.339-.728,3.758,3.758,0,0,0-1.446.556.873.873,0,0,0-.745.211.35.35,0,0,1-.111.072.935.935,0,0,1-.033-.261,6.727,6.727,0,0,1,.056-.828,1.307,1.307,0,0,0,.295-.65,6.024,6.024,0,0,0,.595-.745,9.444,9.444,0,0,1,.6-.806,19.773,19.773,0,0,1,2.524-1.89A10.914,10.914,0,0,0,383,212.1.417.417,0,0,0,383,211.539Zm-4.882,13.11a7.028,7.028,0,0,1-2.708,2.863c-1.2.678-2.413,1.357-3.619,2h-.328a.45.45,0,0,0-.25.083,1.162,1.162,0,0,1-.556.211,18.8,18.8,0,0,0-2.035.445,3.336,3.336,0,0,1-1.84,0,2.586,2.586,0,0,1-1.062-.556,1.352,1.352,0,0,1,.133-.506,5.506,5.506,0,0,0,.311-.756c1.034-1.023,2.079-1.99,3.125-2.869a26.347,26.347,0,0,1,3.519-2.491.462.462,0,0,0,.083-.061.756.756,0,0,0,.222-.345,3.514,3.514,0,0,0,1.156-.645,4.358,4.358,0,0,1,1.256-.712,5.449,5.449,0,0,0,.667.673c.306.261.6.556.878.806a4.765,4.765,0,0,1,.7.9,2.552,2.552,0,0,1,.35.973Z" transform="translate(-189.38 -185.188)"/><path class="a" d="M424,222.12l-.461-.228a5.432,5.432,0,0,1-.467-3.3c.094-.523.2-1.023.317-1.5a5.869,5.869,0,0,0,.195-1.4,1.368,1.368,0,0,0-.356-.923,3.147,3.147,0,0,0-.556-.506.423.423,0,0,0-.317-.061,6.183,6.183,0,0,0-2.224.928,12.279,12.279,0,0,0-1.785,1.446,6.672,6.672,0,0,0-.617.339c.834-.878,1.64-1.785,2.407-2.685a.411.411,0,0,0,0-.556c-.061-.061-.072-.089-.072-.095a.717.717,0,0,0-.395-.484.423.423,0,0,0-.339,0,13.135,13.135,0,0,1-2.419.706,10.459,10.459,0,0,0-2.535.828.183.183,0,0,1-.2,0,.423.423,0,0,0-.328,0,11.121,11.121,0,0,1-2.3.517,18.759,18.759,0,0,1-2.546.178.667.667,0,0,0-.473.183,4.037,4.037,0,0,0-1.668-.145,1.762,1.762,0,0,1-1.279-.306,2.441,2.441,0,0,1-.556-.656,1.051,1.051,0,0,0-1.462-.339.423.423,0,0,0-.178.15.667.667,0,0,0-.111.617,2.736,2.736,0,0,0-.789.35,2.814,2.814,0,0,1-.878.378.445.445,0,0,0-.195.106c-.395.4-.767.806-1.112,1.223s-.673.778-1.034,1.145a4.385,4.385,0,0,0-.528.45,2.224,2.224,0,0,0-.411.556.928.928,0,0,0-.217.634.5.5,0,0,1-.1.284l-.4.8a1.418,1.418,0,0,0,.028,1.218.335.335,0,0,0,.05.083,1.957,1.957,0,0,0,2.519.717,7.366,7.366,0,0,0,2.224-1.4.278.278,0,0,1,.111-.067.856.856,0,0,0,.467-.222,1.051,1.051,0,0,0,.284-.417v-.05a.634.634,0,0,0,.35-.183,20.742,20.742,0,0,0,1.507-1.668,4.326,4.326,0,0,0,.812-1.479.867.867,0,0,0,.973.2.4.4,0,0,0,.278-.267.939.939,0,0,0,.056-.395,13.766,13.766,0,0,0,2.335-.044,25.119,25.119,0,0,0,2.98-.478c1.017-.222,2.007-.456,2.936-.689l1.668-.4a20.119,20.119,0,0,1-1.5,1.668,21.751,21.751,0,0,0-2.174,2.635,6.8,6.8,0,0,0-1.612,1.84l-.256.222a.984.984,0,0,0-.339.828.433.433,0,0,0,.117.295,2.78,2.78,0,0,0,.523.356.411.411,0,0,0,.461-.028c1.54-1.156,3.069-2.374,4.537-3.631s2.9-2.368,4.387-3.442a1.384,1.384,0,0,0,.656-.206,3.818,3.818,0,0,1-.117,1.029c-.15.634-.272,1.2-.367,1.724a.5.5,0,0,0,0,.128,8.573,8.573,0,0,1,0,2.135.434.434,0,0,0,0,.206l.289.723a3.282,3.282,0,0,0,.528.862c.139.145.317.328.528.556a1.034,1.034,0,0,0,.784.361,1.334,1.334,0,0,0,.523-.117.422.422,0,0,0,.245-.3A.828.828,0,0,0,424,222.12Zm-19.849-4.487a2.7,2.7,0,0,1-.345.495.589.589,0,0,0-.378.167,4.239,4.239,0,0,0-.556.678,3.713,3.713,0,0,1-.373.467,1.946,1.946,0,0,0-.445.373.255.255,0,0,1-.039.039.756.756,0,0,0-.356.217,4.446,4.446,0,0,0-.706.523,5.2,5.2,0,0,1-.495.4l-.05.033a.556.556,0,0,0-.439.156h0a.762.762,0,0,0-.473.15.872.872,0,0,1-.161.089.784.784,0,0,0-.3-.161,1.579,1.579,0,0,1,.15-.79,5.22,5.22,0,0,1,.706-1.112,10.128,10.128,0,0,1,.973-1.045,10.227,10.227,0,0,0,.884-.917c.517-.284,1.045-.606,1.557-.956a1.245,1.245,0,0,1,1.112-.206,2.051,2.051,0,0,1,.078.728,7.276,7.276,0,0,1-.345.673Z" transform="translate(-204.154 -186.122)"/></svg>