<svg xmlns="http://www.w3.org/2000/svg" width="327.5" height="128.737" viewBox="0 0 327.5 128.737"><defs><style>.a{fill:#fff;}</style></defs><g transform="translate(0.001 0.001)"><g transform="translate(-0.001 -0.001)"><path class="a" d="M206.641,128.74c-9.3-.374-17.558-4.843-21.74-14.7q-16.963-39.918-33.2-80.118C146.514,21.044,152.9,7.066,165.542,1.9a24.711,24.711,0,0,1,32.1,12.957C209,41.441,220.17,68.125,230.881,94.981c6.529,16.373-5.693,33.821-24.214,33.777" transform="translate(-83.901 -0.021)"/><path class="a" d="M56.85,128.722c-9.355-.352-17.61-4.843-21.815-14.669Q18.05,74.139,1.813,33.9C-3.377,21.03,2.984,7.043,15.616,1.866A24.741,24.741,0,0,1,47.754,14.779C59.166,41.507,70.423,68.314,81.1,95.346c6.388,16.171-5.935,33.4-24.214,33.38" transform="translate(0.001 0.001)"/><path class="a" d="M332.157,69c-9.589-.313-17.668-4.971-22.193-14.841-3.029-6.6-5.767-13.322-8.325-20.107a24.917,24.917,0,0,1,45.844-19.486c3.249,6.969,6.247,14.088,8.805,21.335,5.723,16.135-6.106,32.962-24.126,33.1" transform="translate(-167.883 -0.009)"/></g><g transform="translate(201.651 5.031)"><path class="a" d="M472.6,25.078,475.61,11.43h2.4l-4.064,16.224h-2.782l-3.139-13.331-3.082,13.335H462.16l-4.13-16.224h2.514l3.139,13.648,3.007-13.648h2.694Z" transform="translate(-458.03 -11.43)"/><path class="a" d="M508.049,11.47h2.642l6.124,16.224h-2.465l-1.281-3.522h-7.484l-1.259,3.522H502Zm-1.761,10.764h6.058l-3.038-8.457Z" transform="translate(-482.642 -11.452)"/><path class="a" d="M546.447,20.847h-4.108v6.824H540.05V11.47h5.164a19.3,19.3,0,0,1,2.725.181,5.97,5.97,0,0,1,2.144.7,3.619,3.619,0,0,1,1.391,1.431,4.843,4.843,0,0,1,.506,2.373,4.3,4.3,0,0,1-.88,2.928,4.574,4.574,0,0,1-2.342,1.431l3.769,7.2h-2.558ZM542.339,13.4v5.547h3.051a16.471,16.471,0,0,0,1.673-.079,4.029,4.029,0,0,0,1.347-.357,2.092,2.092,0,0,0,.88-.828,2.924,2.924,0,0,0,.326-1.488,3,3,0,0,0-.326-1.5,2.061,2.061,0,0,0-.88-.836,4.029,4.029,0,0,0-1.347-.37,14.181,14.181,0,0,0-1.673-.088Z" transform="translate(-503.94 -11.452)"/><path class="a" d="M585.419,27.694l-7.449-13.851V27.694H575.68V11.47h3.368l7.427,13.807V11.47h2.289V27.694Z" transform="translate(-523.884 -11.452)"/><path class="a" d="M614.16,11.47H625.2v1.994h-8.752v4.9h8.233v1.968h-8.233v5.393H625.2v1.968H614.16Z" transform="translate(-545.422 -11.452)"/><path class="a" d="M651.8,20.847h-4.108v6.824H645.4V11.47h5.164a19.3,19.3,0,0,1,2.725.181,6,6,0,0,1,2.144.7,3.646,3.646,0,0,1,1.4,1.431,4.844,4.844,0,0,1,.506,2.373,4.3,4.3,0,0,1-.881,2.928,4.592,4.592,0,0,1-2.351,1.431l3.769,7.2h-2.558ZM647.689,13.4v5.547h3.051a16.471,16.471,0,0,0,1.673-.079,4.029,4.029,0,0,0,1.347-.357,2.144,2.144,0,0,0,.88-.828,2.922,2.922,0,0,0,.326-1.488,3,3,0,0,0-.326-1.5,2.109,2.109,0,0,0-.88-.836,4.028,4.028,0,0,0-1.347-.37,14.18,14.18,0,0,0-1.673-.088Z" transform="translate(-562.909 -11.452)"/></g><g transform="translate(205.794 26.018)"><path class="a" d="M474.216,75.979l-4.491-14.141V75.979H467.44V59.76h3.835l4.152,13.512,4.147-13.512h3.839V75.979h-2.289V61.838l-4.486,14.141Z" transform="translate(-467.44 -59.469)"/><path class="a" d="M514.216,59.76v9.866a5.388,5.388,0,0,0,.951,3.522,4.061,4.061,0,0,0,3.245,1.14,4.007,4.007,0,0,0,3.3-1.264,5.82,5.82,0,0,0,.964-3.659V59.76h2.289V69.2a12.014,12.014,0,0,1-.357,3.113,5.424,5.424,0,0,1-1.145,2.2,4.786,4.786,0,0,1-2.034,1.321,9.162,9.162,0,0,1-3.016.44,10.231,10.231,0,0,1-2.919-.37,4.526,4.526,0,0,1-2.016-1.189,4.961,4.961,0,0,1-1.167-2.126,11.565,11.565,0,0,1-.383-3.209V59.76Z" transform="translate(-492.34 -59.469)"/><path class="a" d="M547.531,63.529a3.549,3.549,0,0,1,.55-2,4.6,4.6,0,0,1,1.4-1.378,6.45,6.45,0,0,1,1.9-.792,8.51,8.51,0,0,1,4.138,0,6.063,6.063,0,0,1,1.831.792,5.142,5.142,0,0,1,1.4,1.378,5.529,5.529,0,0,1,.832,2h-2.223a3.016,3.016,0,0,0-.625-1.175,3.624,3.624,0,0,0-.991-.784,4.076,4.076,0,0,0-1.189-.44,6.261,6.261,0,0,0-1.233-.123,5.8,5.8,0,0,0-1.065.11,4.188,4.188,0,0,0-1.136.392,2.717,2.717,0,0,0-.88.74,1.761,1.761,0,0,0-.357,1.127,1.968,1.968,0,0,0,.753,1.655,4.614,4.614,0,0,0,1.893.832l1.884.44c.63.136,1.268.3,1.911.506a6.689,6.689,0,0,1,1.761.836A4.4,4.4,0,0,1,559.405,69a3.8,3.8,0,0,1,.506,2.047,4.161,4.161,0,0,1-.555,2.1A4.761,4.761,0,0,1,558,74.659a6.067,6.067,0,0,1-1.977.929,8.533,8.533,0,0,1-2.333.317,8.326,8.326,0,0,1-2.6-.383,6.287,6.287,0,0,1-2.034-1.057,5.477,5.477,0,0,1-1.378-1.677,6.335,6.335,0,0,1-.687-2.2h2.245a3.962,3.962,0,0,0,1.462,2.54,4.918,4.918,0,0,0,3.029.881,4.521,4.521,0,0,0,2.8-.757,2.391,2.391,0,0,0,.986-1.972,2.242,2.242,0,0,0-.26-1.1,2.426,2.426,0,0,0-.726-.806,4.467,4.467,0,0,0-1.114-.559,13.729,13.729,0,0,0-1.4-.4L552,67.976a9.28,9.28,0,0,1-1.638-.515,5.415,5.415,0,0,1-1.435-.881,4.191,4.191,0,0,1-1.013-1.286A3.884,3.884,0,0,1,547.531,63.529Z" transform="translate(-511.967 -59.1)"/><path class="a" d="M584.709,75.979H582.42V59.76h2.289Z" transform="translate(-531.799 -59.469)"/><path class="a" d="M609.015,70.447a7.093,7.093,0,0,1-.907,2.364,6.317,6.317,0,0,1-1.563,1.708,6.542,6.542,0,0,1-2.1,1.043,8.752,8.752,0,0,1-2.487.348,7.414,7.414,0,0,1-3.121-.63,6.653,6.653,0,0,1-2.32-1.761,7.628,7.628,0,0,1-1.448-2.642,11.088,11.088,0,0,1-.493-3.4,10.4,10.4,0,0,1,.537-3.421,7.659,7.659,0,0,1,1.528-2.642,6.741,6.741,0,0,1,2.377-1.7,8.175,8.175,0,0,1,5.5-.238,6.551,6.551,0,0,1,2.008,1.065,6.268,6.268,0,0,1,1.5,1.713,7.23,7.23,0,0,1,.881,2.316h-2.2a4.968,4.968,0,0,0-.572-1.413,4.239,4.239,0,0,0-.977-1.118,4.4,4.4,0,0,0-1.369-.735,5.335,5.335,0,0,0-1.761-.269,4.843,4.843,0,0,0-2.008.414,4.575,4.575,0,0,0-1.629,1.228A5.89,5.89,0,0,0,597.3,64.7a9.033,9.033,0,0,0-.392,2.774,9.267,9.267,0,0,0,.379,2.756,6.035,6.035,0,0,0,1.087,2.038,4.615,4.615,0,0,0,1.638,1.272,4.918,4.918,0,0,0,2.087.44,4.72,4.72,0,0,0,3.13-.982,4.627,4.627,0,0,0,1.558-2.553Z" transform="translate(-538.604 -59.106)"/></g><g transform="translate(205.785 47.292)"><path class="a" d="M477.159,124.237l-7.449-13.851v13.851H467.42V108h3.364l7.427,13.807V108H480.5v16.219Z" transform="translate(-467.42 -107.745)"/><path class="a" d="M507.518,108h2.642l6.124,16.219h-2.47l-1.277-3.522h-7.484l-1.259,3.522H501.46Zm-1.761,10.76h6.067l-3.051-8.457Z" transform="translate(-486.474 -107.745)"/><path class="a" d="M537.622,111.831a3.584,3.584,0,0,1,.55-2,4.6,4.6,0,0,1,1.4-1.378,6.5,6.5,0,0,1,1.9-.775,8.51,8.51,0,0,1,4.138,0,6.062,6.062,0,0,1,1.831.792,5.142,5.142,0,0,1,1.4,1.378,5.381,5.381,0,0,1,.832,2h-2.2a3.015,3.015,0,0,0-.625-1.175,3.623,3.623,0,0,0-.991-.784,4.077,4.077,0,0,0-1.189-.44,6.259,6.259,0,0,0-1.233-.123,5.8,5.8,0,0,0-1.083.11,4.188,4.188,0,0,0-1.136.392,2.642,2.642,0,0,0-.88.74,1.761,1.761,0,0,0-.361,1.127,1.981,1.981,0,0,0,.753,1.66,4.689,4.689,0,0,0,1.9.828l1.884.44c.625.136,1.263.3,1.906.506a6.687,6.687,0,0,1,1.761.836,4.4,4.4,0,0,1,1.321,1.356,3.835,3.835,0,0,1,.5,2.047,4.16,4.16,0,0,1-.515,2.091,4.759,4.759,0,0,1-1.369,1.519,6.088,6.088,0,0,1-1.972.929,8.554,8.554,0,0,1-2.333.317,8.334,8.334,0,0,1-2.606-.383,6.164,6.164,0,0,1-2.016-1.074,5.429,5.429,0,0,1-1.382-1.677,6.238,6.238,0,0,1-.682-2.2h2.241a3.963,3.963,0,0,0,1.462,2.54,4.918,4.918,0,0,0,3.029.858,4.521,4.521,0,0,0,2.8-.757,2.391,2.391,0,0,0,.986-1.972,2.267,2.267,0,0,0-.26-1.1,2.426,2.426,0,0,0-.726-.806,4.672,4.672,0,0,0-1.109-.559,13.834,13.834,0,0,0-1.4-.4l-2.021-.44a9.518,9.518,0,0,1-1.638-.515,5.415,5.415,0,0,1-1.435-.881,4.112,4.112,0,0,1-1.008-1.286A3.827,3.827,0,0,1,537.622,111.831Z" transform="translate(-506.434 -107.42)"/><path class="a" d="M586.6,108v16.219h-2.285v-7.344h-8.55v7.361H573.48V108h2.289v6.89h8.55V108Z" transform="translate(-526.786 -107.745)"/><path class="a" d="M611.787,108l4.508,13.873L620.7,108h2.4l-5.516,16.219h-2.712L609.26,108Z" transform="translate(-546.814 -107.745)"/><path class="a" d="M648.9,124.237H646.62V108H648.9Z" transform="translate(-567.726 -107.745)"/><path class="a" d="M662.869,122.269h8.594v1.968H660.58V108h2.289Z" transform="translate(-575.54 -107.745)"/><path class="a" d="M691.969,122.269h8.594v1.968H689.68V108h2.289Z" transform="translate(-591.828 -107.745)"/><path class="a" d="M718.79,108h11.037v1.968h-8.744v4.922h8.237v1.968h-8.237v5.393h8.752v1.968H718.79Z" transform="translate(-608.122 -107.745)"/></g></g></svg>